<svg width="69" height="69" viewBox="0 0 69 69" fill="none" xmlns="http://www.w3.org/2000/svg">
<rect width="69" height="69" fill="#1E1E1E"/>
<g clip-path="url(#clip0_0_1)">
<rect width="1728" height="7188" transform="translate(-1199 -5290)" fill="white"/>
<rect width="1720" height="880" transform="translate(-1199 -562)" fill="#F1F1F1"/>
<g filter="url(#filter0_d_0_1)">
<rect x="-846" y="-242" width="1013" height="376" rx="24" fill="white"/>
<rect x="-845.5" y="-241.5" width="1012" height="375" rx="23.5" stroke="#808080" stroke-opacity="0.2"/>
<path d="M63.1062 25.0729L63.0343 24.5899L62.9596 24.6071C62.4487 22.2181 61.2719 20.0226 59.5652 18.2745C57.8585 16.5265 55.6918 15.2974 53.3157 14.7294C50.9396 14.1615 48.4512 14.278 46.1386 15.0653C43.8259 15.8527 41.7834 17.2787 40.2474 19.1785C38.7115 21.0783 37.7448 23.3742 37.4593 25.8005C37.1738 28.2268 37.581 30.6843 38.634 32.8888C39.687 35.0932 41.3427 36.9545 43.4094 38.2572C45.4761 39.5599 47.8694 40.2508 50.3125 40.25C50.9536 40.25 51.5688 40.1523 52.1812 40.0631C51.9828 40.7301 51.7787 41.4086 51.451 42.0181C51.1232 42.9036 50.6115 43.6713 50.1026 44.4446C49.6771 45.2813 48.9267 45.8476 48.3747 46.5635C47.7968 47.2593 47.0091 47.7221 46.3852 48.3C45.7728 48.9038 44.9707 49.2056 44.3325 49.6311C43.6655 50.0135 43.0847 50.4361 42.4637 50.6374L40.9141 51.2756L39.5513 51.842L40.9428 57.4166L42.6592 57.0026C43.2083 56.8646 43.8782 56.7036 44.6401 56.511C45.4192 56.3673 46.2501 55.9734 47.1758 55.614C48.0872 55.2029 49.1481 54.9298 50.1313 54.2714C51.1203 53.6446 52.2617 53.1214 53.268 52.2819C54.2426 51.4165 55.4185 50.6661 56.2867 49.5679C57.2355 48.5386 58.1727 47.4576 58.9001 46.2271C59.7425 45.0541 60.3146 43.7661 60.9183 42.4925C61.4646 41.2189 61.9045 39.9165 62.2638 38.6515C62.9452 36.1158 63.25 33.7065 63.3678 31.6451C63.4656 29.5809 63.4081 27.8645 63.2873 26.6225C63.2469 26.1038 63.1865 25.5869 63.1062 25.0729ZM31.4812 25.0729L31.4093 24.5899L31.3346 24.6071C30.8237 22.2181 29.6469 20.0226 27.9402 18.2745C26.2335 16.5265 24.0668 15.2974 21.6907 14.7294C19.3146 14.1615 16.8262 14.278 14.5136 15.0653C12.2009 15.8527 10.1584 17.2787 8.62243 19.1785C7.08646 21.0783 6.1198 23.3742 5.83427 25.8005C5.54875 28.2268 5.95605 30.6843 7.00903 32.8888C8.06201 35.0932 9.71765 36.9545 11.7844 38.2572C13.8511 39.5599 16.2444 40.2508 18.6875 40.25C19.3286 40.25 19.9438 40.1523 20.5562 40.0631C20.3578 40.7301 20.1537 41.4086 19.826 42.0181C19.4982 42.9036 18.9865 43.6713 18.4776 44.4446C18.0521 45.2813 17.3017 45.8476 16.7497 46.5635C16.1718 47.2593 15.3841 47.7221 14.7602 48.3C14.1478 48.9038 13.3457 49.2056 12.7075 49.6311C12.0405 50.0135 11.4597 50.4361 10.8387 50.6374L9.28909 51.2756C8.42371 51.6292 7.92921 51.8363 7.92921 51.8363L9.32071 57.4109L11.0371 56.9969C11.5862 56.8589 12.2561 56.6979 13.018 56.5053C13.7971 56.3615 14.628 55.9676 15.5537 55.6082C16.4651 55.1971 17.526 54.924 18.5092 54.2656C19.4982 53.6389 20.6396 53.1156 21.6458 52.2761C22.6205 51.4108 23.7963 50.6604 24.6646 49.5621C25.6133 48.5329 26.5506 47.4519 27.278 46.2214C28.1203 45.0484 28.6925 43.7604 29.2962 42.4868C29.8425 41.2131 30.2823 39.9108 30.6417 38.6458C31.3231 36.11 31.6278 33.7008 31.7457 31.6394C31.8435 29.5751 31.786 27.8588 31.6652 26.6168C31.6223 26.1001 31.5609 25.5851 31.4812 25.0729Z" fill="#FFD737"/>
</g>
</g>
<defs>
<filter id="filter0_d_0_1" x="-870" y="-266" width="1093" height="456" filterUnits="userSpaceOnUse" color-interpolation-filters="sRGB">
<feFlood flood-opacity="0" result="BackgroundImageFix"/>
<feColorMatrix in="SourceAlpha" type="matrix" values="0 0 0 0 0 0 0 0 0 0 0 0 0 0 0 0 0 0 127 0" result="hardAlpha"/>
<feOffset dx="16" dy="16"/>
<feGaussianBlur stdDeviation="20"/>
<feComposite in2="hardAlpha" operator="out"/>
<feColorMatrix type="matrix" values="0 0 0 0 0.374491 0 0 0 0 0.377325 0 0 0 0 0.377865 0 0 0 0.1 0"/>
<feBlend mode="normal" in2="BackgroundImageFix" result="effect1_dropShadow_0_1"/>
<feBlend mode="normal" in="SourceGraphic" in2="effect1_dropShadow_0_1" result="shape"/>
</filter>
<clipPath id="clip0_0_1">
<rect width="1728" height="7188" fill="white" transform="translate(-1199 -5290)"/>
</clipPath>
</defs>
</svg>
