<svg width="40" height="40" viewBox="0 0 40 40" fill="none" xmlns="http://www.w3.org/2000/svg">
<rect width="40" height="40" fill="#1E1E1E"/>
<g clip-path="url(#clip0_0_1)">
<rect width="1728" height="7188" transform="translate(-109 -3939)" fill="white"/>
<circle cx="20" cy="20" r="18" stroke="#2CAAC2" stroke-width="4"/>
<path d="M16.592 26V24.912L21.152 20.512C21.5573 20.128 21.856 19.792 22.048 19.504C22.2507 19.2053 22.384 18.9333 22.448 18.688C22.5227 18.432 22.56 18.1867 22.56 17.952C22.56 17.376 22.3573 16.9227 21.952 16.592C21.5467 16.2613 20.9547 16.096 20.176 16.096C19.5787 16.096 19.04 16.1973 18.56 16.4C18.08 16.592 17.664 16.896 17.312 17.312L16.224 16.368C16.6507 15.824 17.2213 15.408 17.936 15.12C18.6613 14.8213 19.456 14.672 20.32 14.672C21.0987 14.672 21.776 14.8 22.352 15.056C22.928 15.3013 23.3707 15.6587 23.68 16.128C24 16.5973 24.16 17.152 24.16 17.792C24.16 18.1547 24.112 18.512 24.016 18.864C23.92 19.216 23.7387 19.5893 23.472 19.984C23.2053 20.3787 22.8213 20.8213 22.32 21.312L18.256 25.232L17.872 24.608H24.64V26H16.592Z" fill="black"/>
</g>
<defs>
<clipPath id="clip0_0_1">
<rect width="1728" height="7188" fill="white" transform="translate(-109 -3939)"/>
</clipPath>
</defs>
</svg>
