<svg width="40" height="40" viewBox="0 0 40 40" fill="none" xmlns="http://www.w3.org/2000/svg">
<rect width="40" height="40" fill="#1E1E1E"/>
<g clip-path="url(#clip0_0_1)">
<rect width="1728" height="7188" transform="translate(-109 -4305)" fill="white"/>
<circle cx="20" cy="20" r="18" stroke="#2CAAC2" stroke-width="4"/>
<path d="M19.384 26.128C18.5947 26.128 17.8267 26.0053 17.08 25.76C16.344 25.5147 15.7413 25.184 15.272 24.768L16.008 23.504C16.3813 23.856 16.8667 24.144 17.464 24.368C18.0613 24.592 18.696 24.704 19.368 24.704C20.2213 24.704 20.8773 24.5227 21.336 24.16C21.7947 23.7973 22.024 23.312 22.024 22.704C22.024 22.288 21.9227 21.9253 21.72 21.616C21.5173 21.3067 21.1653 21.072 20.664 20.912C20.1733 20.7413 19.496 20.656 18.632 20.656H16.088L16.68 14.8H23V16.192H17.272L18.104 15.408L17.64 20.032L16.808 19.264H18.968C20.088 19.264 20.9893 19.408 21.672 19.696C22.3547 19.984 22.8507 20.384 23.16 20.896C23.4693 21.3973 23.624 21.9787 23.624 22.64C23.624 23.28 23.4693 23.8667 23.16 24.4C22.8507 24.9227 22.3813 25.344 21.752 25.664C21.1333 25.9733 20.344 26.128 19.384 26.128Z" fill="black"/>
</g>
<defs>
<clipPath id="clip0_0_1">
<rect width="1728" height="7188" fill="white" transform="translate(-109 -4305)"/>
</clipPath>
</defs>
</svg>
