<svg width="40" height="40" viewBox="0 0 40 40" fill="none" xmlns="http://www.w3.org/2000/svg">
<rect width="40" height="40" fill="#1E1E1E"/>
<g clip-path="url(#clip0_0_1)">
<rect width="1728" height="7188" transform="translate(-109 -4063)" fill="white"/>
<circle cx="20" cy="20" r="18" stroke="#2CAAC2" stroke-width="4"/>
<path d="M19.192 26.128C18.4027 26.128 17.6347 26.0053 16.888 25.76C16.152 25.5147 15.5493 25.184 15.08 24.768L15.816 23.504C16.1893 23.856 16.6747 24.144 17.272 24.368C17.8693 24.592 18.5093 24.704 19.192 24.704C20.024 24.704 20.6693 24.528 21.128 24.176C21.5973 23.8133 21.832 23.328 21.832 22.72C21.832 22.1333 21.608 21.664 21.16 21.312C20.7227 20.9493 20.024 20.768 19.064 20.768H18.168V19.648L21.496 15.552L21.72 16.192H15.592V14.8H22.984V15.888L19.672 19.968L18.84 19.472H19.368C20.7227 19.472 21.736 19.776 22.408 20.384C23.0907 20.992 23.432 21.7653 23.432 22.704C23.432 23.3333 23.2773 23.9093 22.968 24.432C22.6587 24.9547 22.1893 25.3707 21.56 25.68C20.9413 25.9787 20.152 26.128 19.192 26.128Z" fill="black"/>
</g>
<defs>
<clipPath id="clip0_0_1">
<rect width="1728" height="7188" fill="white" transform="translate(-109 -4063)"/>
</clipPath>
</defs>
</svg>
