<svg width="101" height="100" viewBox="0 0 101 100" fill="none" xmlns="http://www.w3.org/2000/svg">
<rect width="101" height="100" fill="#1E1E1E"/>
<g clip-path="url(#clip0_0_1)">
<rect width="1728" height="7188" transform="translate(-1330 -1490)" fill="white"/>
<rect width="1729" height="1097" transform="translate(-1331 -430)" fill="#000919"/>
<g filter="url(#filter0_d_0_1)">
<rect x="-192" y="-76" width="485" height="576" rx="40" fill="white"/>
<path d="M31.7179 64.0319L34.5002 63.1427V60.2217C34.5002 56.9207 35.255 52.2902 37.6146 48.6209C39.8107 45.2059 43.5561 42.325 50.5002 42.325C57.437 42.325 61.1843 45.2152 63.3841 48.6419C65.7467 52.3222 66.5002 56.9555 66.5002 60.2217V62.9989L69.1023 63.9695C72.7036 65.3128 76.1448 67.0042 79.3712 69.0149L79.7505 69.3739L79.9502 69.5629L80.1738 69.7228C80.2694 69.7911 80.362 69.8622 80.4517 69.9361L80.4727 69.9533L80.4938 69.9702C81.3782 70.6782 82.0928 71.5331 82.6075 72.4784L86.1206 70.5657L82.6075 72.4784C83.1218 73.4231 83.4291 74.4441 83.5204 75.4837C83.6116 76.5232 83.4861 77.572 83.1472 78.5733C82.8081 79.5752 82.259 80.518 81.5201 81.3434L81.4932 81.3734L81.467 81.404C79.9397 83.1806 77.6874 84.3604 75.175 84.6152C72.6613 84.8701 70.1699 84.1694 68.2469 82.7146L68.1246 82.6221L67.9956 82.5393C62.8191 79.2136 56.7141 77.4812 50.5002 77.5502C44.2863 77.4812 38.1813 79.2136 33.0048 82.5393L32.9744 82.5588L32.9443 82.5789C30.9061 83.9411 28.3614 84.5312 25.8396 84.1902L25.3036 88.1541L25.8396 84.1902C23.3457 83.853 21.1297 82.6409 19.6101 80.8632C18.224 79.0529 17.6607 76.8427 17.9876 74.6927C18.3176 72.5216 19.5435 70.5 21.4842 69.0983C24.5877 66.9184 28.0403 65.2072 31.7179 64.0319ZM13.287 39.8927L13.2347 39.2524L12.9845 38.6606C12.4138 37.3105 12.4005 35.8199 12.9454 34.4628C13.4047 33.3186 14.2491 32.3041 15.3886 31.5903C16.7769 31.6714 18.0849 32.182 19.1043 33.0211C20.3073 34.0113 20.9997 35.3625 21.1135 36.7572L21.1657 37.3976L21.4159 37.9894C21.9866 39.3395 21.9999 40.8301 21.4551 42.1872C20.9957 43.3314 20.1513 44.3458 19.0119 45.0597C17.6235 44.9786 16.3156 44.4679 15.2962 43.6289L12.7774 46.6892L15.2962 43.6289C14.0932 42.6387 13.4008 41.2875 13.287 39.8927ZM88.0826 38.6606L87.8324 39.2524L87.7801 39.8927C87.6663 41.2875 86.974 42.6387 85.7709 43.6289C84.7515 44.4679 83.4436 44.9786 82.0552 45.0597C80.9158 44.3458 80.0714 43.3314 79.612 42.1872C79.0672 40.8301 79.0805 39.3395 79.6512 37.9894L79.9014 37.3976L79.9536 36.7572C80.0675 35.3625 80.7598 34.0113 81.9628 33.0211C82.9822 32.182 84.2902 31.6714 85.6785 31.5903C86.818 32.3041 87.6624 33.3186 88.1217 34.4628C88.6666 35.8199 88.6533 37.3105 88.0826 38.6606ZM33.2611 19.9085L33.2258 19.6584L33.1594 19.4147C32.5457 17.164 32.7325 15.2935 33.2222 14.1263C33.5928 13.2427 34.0595 12.8577 34.5389 12.7058C36.1827 12.9284 37.6909 13.6267 38.8575 14.6761C40.1329 15.8233 40.9185 17.3129 41.1394 18.8797L41.1746 19.1298L41.2411 19.3735C41.8547 21.6243 41.6679 23.4947 41.1783 24.6619C40.8076 25.5455 40.341 25.9305 39.8616 26.0824C38.2177 25.8598 36.7095 25.1615 35.543 24.1122C34.2676 22.965 33.4819 21.4753 33.2611 19.9085ZM67.9077 19.4147L67.8416 19.6575L67.8063 19.9066C67.5838 21.4795 66.7921 22.9743 65.5075 24.1227C64.3222 25.1823 62.7879 25.8804 61.1193 26.0887C60.6653 25.9551 60.2013 25.5927 59.8242 24.6904C59.3315 23.5117 59.1461 21.6229 59.7594 19.3735L59.8258 19.1298L59.8611 18.8797C60.0827 17.3071 60.8739 15.8124 62.1583 14.6643C63.3369 13.6106 64.861 12.9147 66.5189 12.7029C67.0016 12.8528 67.4719 13.237 67.8449 14.1263C68.3346 15.2935 68.5214 17.164 67.9077 19.4147Z" stroke="#FFD535" stroke-width="8"/>
</g>
</g>
<defs>
<filter id="filter0_d_0_1" x="-196" y="-76" width="493" height="584" filterUnits="userSpaceOnUse" color-interpolation-filters="sRGB">
<feFlood flood-opacity="0" result="BackgroundImageFix"/>
<feColorMatrix in="SourceAlpha" type="matrix" values="0 0 0 0 0 0 0 0 0 0 0 0 0 0 0 0 0 0 127 0" result="hardAlpha"/>
<feOffset dy="4"/>
<feGaussianBlur stdDeviation="2"/>
<feComposite in2="hardAlpha" operator="out"/>
<feColorMatrix type="matrix" values="0 0 0 0 0 0 0 0 0 0 0 0 0 0 0 0 0 0 0.25 0"/>
<feBlend mode="normal" in2="BackgroundImageFix" result="effect1_dropShadow_0_1"/>
<feBlend mode="normal" in="SourceGraphic" in2="effect1_dropShadow_0_1" result="shape"/>
</filter>
<clipPath id="clip0_0_1">
<rect width="1728" height="7188" fill="white" transform="translate(-1330 -1490)"/>
</clipPath>
</defs>
</svg>
