<svg width="84" height="84" viewBox="0 0 84 84" fill="none" xmlns="http://www.w3.org/2000/svg">
<rect width="84" height="84" fill="#1E1E1E"/>
<g clip-path="url(#clip0_0_1)">
<rect width="1728" height="7188" transform="translate(-304 -1505)" fill="white"/>
<rect width="1729" height="1097" transform="translate(-305 -445)" fill="#000919"/>
<g filter="url(#filter0_d_0_1)">
<rect x="-200" y="-91" width="485" height="576" rx="40" fill="white" shape-rendering="crispEdges"/>
<path d="M48.2502 83.6667C40.7502 83.6667 34.3613 81.0278 29.0835 75.7501C23.8057 70.4723 21.1668 64.0834 21.1668 56.5834V54.1876C15.1946 53.2153 10.2293 50.4195 6.271 45.8001C2.31266 41.1806 0.333496 35.7473 0.333496 29.5001V8.66672C0.333496 7.48617 0.733497 6.49589 1.5335 5.69589C2.3335 4.89589 3.32238 4.49728 4.50016 4.50005H12.8335C12.8335 3.3195 13.2335 2.32922 14.0335 1.52922C14.8335 0.729221 15.8224 0.330611 17.0002 0.333388C18.1807 0.333388 19.171 0.733389 19.971 1.53339C20.771 2.33339 21.1696 3.32228 21.1668 4.50005V12.8334C21.1668 14.0139 20.7668 15.0042 19.9668 15.8042C19.1668 16.6042 18.1779 17.0028 17.0002 17.0001C15.8196 17.0001 14.8293 16.6001 14.0293 15.8001C13.2293 15.0001 12.8307 14.0112 12.8335 12.8334H8.66683V29.5001C8.66683 34.0834 10.2988 38.007 13.5627 41.2709C16.8266 44.5348 20.7502 46.1667 25.3335 46.1667C29.9168 46.1667 33.8404 44.5348 37.1043 41.2709C40.3682 38.007 42.0002 34.0834 42.0002 29.5001V12.8334H37.8335C37.8335 14.0139 37.4335 15.0042 36.6335 15.8042C35.8335 16.6042 34.8446 17.0028 33.6668 17.0001C32.4863 17.0001 31.496 16.6001 30.696 15.8001C29.896 15.0001 29.4974 14.0112 29.5002 12.8334V4.50005C29.5002 3.3195 29.9002 2.32922 30.7002 1.52922C31.5002 0.729221 32.4891 0.330611 33.6668 0.333388C34.8474 0.333388 35.8377 0.733389 36.6377 1.53339C37.4377 2.33339 37.8363 3.32228 37.8335 4.50005H46.1668C47.3474 4.50005 48.3377 4.90005 49.1377 5.70006C49.9377 6.50006 50.3363 7.48894 50.3335 8.66672V29.5001C50.3335 35.7501 48.3543 41.1848 44.396 45.8042C40.4377 50.4237 35.4724 53.2181 29.5002 54.1876V56.5834C29.5002 61.7917 31.3238 66.2195 34.971 69.8667C38.6182 73.5139 43.0446 75.3362 48.2502 75.3334C53.4585 75.3334 57.8863 73.5098 61.5335 69.8626C65.1807 66.2153 67.0029 61.7889 67.0002 56.5834V49.6042C64.5696 48.7014 62.5724 47.1903 61.0085 45.0709C59.4446 42.9514 58.6641 40.5389 58.6668 37.8334C58.6668 34.3612 59.8821 31.4098 62.3127 28.9792C64.7432 26.5487 67.6946 25.3334 71.1668 25.3334C74.639 25.3334 77.5904 26.5487 80.021 28.9792C82.4516 31.4098 83.6668 34.3612 83.6668 37.8334C83.6668 40.5417 82.8849 42.9556 81.321 45.0751C79.7571 47.1945 77.7613 48.7042 75.3335 49.6042V56.5834C75.3335 64.0834 72.6946 70.4723 67.4168 75.7501C62.1391 81.0278 55.7502 83.6667 48.2502 83.6667ZM71.1668 42.0001C72.3474 42.0001 73.3377 41.6001 74.1377 40.8001C74.9377 40.0001 75.3363 39.0112 75.3335 37.8334C75.3335 36.6528 74.9335 35.6626 74.1335 34.8626C73.3335 34.0626 72.3446 33.6639 71.1668 33.6667C69.9863 33.6667 68.996 34.0667 68.196 34.8667C67.396 35.6667 66.9974 36.6556 67.0002 37.8334C67.0002 39.0139 67.4002 40.0042 68.2002 40.8042C69.0002 41.6042 69.989 42.0028 71.1668 42.0001Z" fill="#2CAAC2"/>
</g>
</g>
<defs>
<filter id="filter0_d_0_1" x="-204" y="-91" width="493" height="584" filterUnits="userSpaceOnUse" color-interpolation-filters="sRGB">
<feFlood flood-opacity="0" result="BackgroundImageFix"/>
<feColorMatrix in="SourceAlpha" type="matrix" values="0 0 0 0 0 0 0 0 0 0 0 0 0 0 0 0 0 0 127 0" result="hardAlpha"/>
<feOffset dy="4"/>
<feGaussianBlur stdDeviation="2"/>
<feComposite in2="hardAlpha" operator="out"/>
<feColorMatrix type="matrix" values="0 0 0 0 0 0 0 0 0 0 0 0 0 0 0 0 0 0 0.25 0"/>
<feBlend mode="normal" in2="BackgroundImageFix" result="effect1_dropShadow_0_1"/>
<feBlend mode="normal" in="SourceGraphic" in2="effect1_dropShadow_0_1" result="shape"/>
</filter>
<clipPath id="clip0_0_1">
<rect width="1728" height="7188" fill="white" transform="translate(-304 -1505)"/>
</clipPath>
</defs>
</svg>
