<svg width="101" height="100" viewBox="0 0 101 100" fill="none" xmlns="http://www.w3.org/2000/svg">
<rect width="101" height="100" fill="#1E1E1E"/>
<g clip-path="url(#clip0_0_1)">
<rect width="1728" height="7188" transform="translate(-813 -1483)" fill="white"/>
<rect width="1729" height="1097" transform="translate(-814 -423)" fill="#000919"/>
<g filter="url(#filter0_d_0_1)">
<rect x="-192" y="-69" width="485" height="576" rx="40" fill="white"/>
<path d="M64.2081 42.875L52.6248 54.4583C51.9312 54.2739 51.2174 54.1759 50.4998 54.1666C48.2897 54.1666 46.1701 55.0446 44.6073 56.6074C43.0444 58.1702 42.1665 60.2898 42.1665 62.5C42.1758 63.2176 42.2737 63.9314 42.4581 64.625L39.2081 67.875C38.8176 68.2623 38.5076 68.7231 38.2961 69.2309C38.0846 69.7386 37.9756 70.2832 37.9756 70.8333C37.9756 71.3833 38.0846 71.928 38.2961 72.4357C38.5076 72.9434 38.8176 73.4043 39.2081 73.7916C39.5955 74.1822 40.0563 74.4921 40.5641 74.7037C41.0718 74.9152 41.6164 75.0241 42.1665 75.0241C42.7165 75.0241 43.2611 74.9152 43.7689 74.7037C44.2766 74.4921 44.7375 74.1822 45.1248 73.7916L48.3748 70.5416C49.0684 70.726 49.7822 70.824 50.4998 70.8333C52.7099 70.8333 54.8296 69.9553 56.3924 68.3925C57.9552 66.8297 58.8331 64.7101 58.8331 62.5C58.8239 61.7823 58.7259 61.0686 58.5415 60.375L70.1248 48.7916C70.9094 48.007 71.3502 46.9429 71.3502 45.8333C71.3502 44.7237 70.9094 43.6596 70.1248 42.875C69.3402 42.0904 68.2761 41.6496 67.1665 41.6496C66.0569 41.6496 64.9927 42.0904 64.2081 42.875ZM50.4998 16.6666C45.0281 16.6666 39.6099 17.7444 34.5547 19.8383C29.4994 21.9323 24.9061 25.0014 21.037 28.8705C13.223 36.6845 8.83314 47.2826 8.83314 58.3333C8.81262 66.5857 11.2653 74.6549 15.8748 81.5C16.4936 82.4172 17.4515 83.051 18.5376 83.262C19.6238 83.4729 20.7493 83.2438 21.6665 82.625C22.5837 82.0061 23.2175 81.0483 23.4285 79.9621C23.6394 78.876 23.4103 77.7505 22.7915 76.8333C19.4353 71.8147 17.5051 65.9788 17.2071 59.9488C16.9091 53.9188 18.2544 47.921 21.0993 42.5959C23.9443 37.2708 28.1821 32.8184 33.3602 29.7141C38.5384 26.6097 44.4624 24.97 50.4998 24.97C56.5372 24.97 62.4613 26.6097 67.6394 29.7141C72.8175 32.8184 77.0553 37.2708 79.9003 42.5959C82.7452 47.921 84.0905 53.9188 83.7925 59.9488C83.4945 65.9788 81.5643 71.8147 78.2081 76.8333C77.901 77.2872 77.6865 77.7973 77.5769 78.3342C77.4672 78.8712 77.4645 79.4245 77.569 79.9625C77.6735 80.5005 77.8831 81.0126 78.1859 81.4695C78.4886 81.9264 78.8784 82.319 79.3331 82.625C80.0229 83.0885 80.8355 83.3352 81.6665 83.3333C82.349 83.3343 83.0213 83.1677 83.6243 82.848C84.2273 82.5283 84.7426 82.0654 85.1248 81.5C89.7343 74.6549 92.187 66.5857 92.1665 58.3333C92.1665 47.2826 87.7766 36.6845 79.9626 28.8705C72.1486 21.0565 61.5505 16.6666 50.4998 16.6666Z" fill="#9DC880"/>
</g>
</g>
<defs>
<filter id="filter0_d_0_1" x="-196" y="-69" width="493" height="584" filterUnits="userSpaceOnUse" color-interpolation-filters="sRGB">
<feFlood flood-opacity="0" result="BackgroundImageFix"/>
<feColorMatrix in="SourceAlpha" type="matrix" values="0 0 0 0 0 0 0 0 0 0 0 0 0 0 0 0 0 0 127 0" result="hardAlpha"/>
<feOffset dy="4"/>
<feGaussianBlur stdDeviation="2"/>
<feComposite in2="hardAlpha" operator="out"/>
<feColorMatrix type="matrix" values="0 0 0 0 0 0 0 0 0 0 0 0 0 0 0 0 0 0 0.25 0"/>
<feBlend mode="normal" in2="BackgroundImageFix" result="effect1_dropShadow_0_1"/>
<feBlend mode="normal" in="SourceGraphic" in2="effect1_dropShadow_0_1" result="shape"/>
</filter>
<clipPath id="clip0_0_1">
<rect width="1728" height="7188" fill="white" transform="translate(-813 -1483)"/>
</clipPath>
</defs>
</svg>
